<?xml version="1.0" encoding="UTF-8" standalone="no"?>
<!-- Generator: Adobe Illustrator 12.0.0, SVG Export Plug-In . SVG Version: 6.00 Build 51448)  -->

<svg
   xmlns:dc="http://purl.org/dc/elements/1.1/"
   xmlns:cc="http://creativecommons.org/ns#"
   xmlns:rdf="http://www.w3.org/1999/02/22-rdf-syntax-ns#"
   xmlns:svg="http://www.w3.org/2000/svg"
   xmlns="http://www.w3.org/2000/svg"
   xmlns:sodipodi="http://sodipodi.sourceforge.net/DTD/sodipodi-0.dtd"
   xmlns:inkscape="http://www.inkscape.org/namespaces/inkscape"
   version="1.1"
   id="Map"
   width="895.854"
   height="896.39"
   viewBox="0 0 895.854 896.39"
   overflow="visible"
   enable-background="new 0 0 895.854 896.39"
   xml:space="preserve"
   inkscape:version="0.91 r13725"
   sodipodi:docname="metro2.svg"><metadata
     id="metadata208"><rdf:RDF><cc:Work
         rdf:about=""><dc:format>image/svg+xml</dc:format><dc:type
           rdf:resource="http://purl.org/dc/dcmitype/StillImage" /><dc:title></dc:title></cc:Work></rdf:RDF></metadata><defs
     id="defs206" /><sodipodi:namedview
     pagecolor="#ffffff"
     bordercolor="#666666"
     borderopacity="1"
     objecttolerance="10"
     gridtolerance="10"
     guidetolerance="10"
     inkscape:pageopacity="0"
     inkscape:pageshadow="2"
     inkscape:window-width="1139"
     inkscape:window-height="697"
     id="namedview204"
     showgrid="false"
     inkscape:zoom="0.52655651"
     inkscape:cx="549.24001"
     inkscape:cy="480.21263"
     inkscape:window-x="0"
     inkscape:window-y="0"
     inkscape:window-maximized="0"
     inkscape:current-layer="Map" /><circle
     id="sea"
     cx="377.01108"
     cy="379.24115"
     r="375.31201"
     style="fill:#e3efef" /><path
     id="world"
     d="m 756.61207,379.65901 c 0,208.615 -169.116,377.731 -377.732,377.731 -158.065,0 -293.455004,-97.089 -349.789004,-234.886 39.77,-40.947 164.574004,-164.754 164.574004,-164.754 l 11.618,-4.314 314.331,-0.663 20.583,5.311 14.935,8.963 92.607,85.967 8.63,13.611 11.286,25.223 0.335,126.467 42.814,-59.086 -0.915,-18.203 -42.232,1.609 -0.333,-5.644 40.497,-1.992 0,-34.851 -3.319,-20.914 -17.261,-37.506 -3.321,-2.654 -28.877,25.889 -4.316,-3.65 28.547,-25.891 -46.376,-48.22 -28.308,26.31 -4.649,-3.316 26.559,-28.877 -32.205,-32.857 -1.992,-2.001 -1.489,-1.491 -1.159,-1.164 -1.023,-0.751 -16.568,-12.195 -28.213,-11.95 -43.751,-0.674 -24.958,-6.293 -14.271,-19.917 -3.651,-119.824 -44.48,-37.507 -201.145,0.662 c 0,0 -53.774,-42.486793 -65.679,-53.053793 64.175,-50.354 145.066,-80.3780148 232.967,-80.3780148 208.613,0.001 377.729,169.1168078 377.729,377.7338078 z"
     inkscape:connector-curvature="0"
     style="fill:#ffffff" /><g
     id="Line"
     transform="translate(-129.14093,-103.99799)"><polygon
       id="island1"
       points="419.086,443.991 420.074,458.503 428.65,458.173 427.661,443.991 460.971,442.671 433.926,420.247 443.82,411.013 438.543,405.077 427.331,414.31 404.905,392.874 416.116,384.298 410.181,378.033 399.297,386.277 299.039,287.008 291.123,282.721 282.877,283.05 224.174,296.902 211.971,307.456 184.268,422.556 184.928,436.078 234.069,490.824 251.548,496.1 266.718,492.473 306.294,453.226 317.838,445.972 326.743,443.991 349.167,444.322 348.507,458.834 356.424,459.164 355.766,444.982 "
       style="fill:#ffffff" /><polygon
       id="Island2"
       points="442.666,414.641 320.642,293.274 315.693,287.335 316.352,276.455 332.514,260.954 341.417,259.305 351.313,263.263 377.696,291.294 393.856,301.518 412.325,301.482 554.797,301.189 564.693,305.148 571.287,312.073 571.946,322.626 587.729,322.425 587.563,329.351 571.403,329.519 571.617,358.243 588.882,358.21 589.046,365.795 572.225,365.631 573.266,388.915 589.706,388.882 590.367,396.137 572.938,396.171 572.606,412.331 565.353,420.578 558.755,420.907 559.414,457.843 549.189,457.513 549.85,422.226 531.382,420.907 514.231,408.704 497.74,408.044 500.049,412.661 506.976,412.002 518.848,418.929 520.499,426.84 509.945,431.789 500.049,431.459 490.484,420.578 495.763,415.627 491.478,412.331 469.379,423.215 460.805,423.215 "
       style="fill:#ffffff" /><polygon
       id="Island3"
       points="400.617,248.421 415.129,252.708 459.65,294.262 395.67,295.252 348.507,254.359 353.125,249.741 "
       style="fill:#ffffff" /><polygon
       id="Island4"
       points="475.48,271.835 468.885,280.412 460.971,283.377 453.385,280.412 427.661,255.346 428.98,249.741 463.278,248.752 473.831,255.677 "
       style="fill:#ffffff" /><polygon
       id="Island5"
       points="533.526,248.752 573.102,285.028 564.526,294.923 489.002,294.923 481.746,289.976 481.746,257.655 488.673,249.08 "
       style="fill:#ffffff" /><path
       id="Line2"
       d="m 585.255,138.729 -4.349,0.087 -0.105,-5.366 14.346,0.165 0.166,5.112 -4.783,0 0,130.765 c 0,0 -2.028,6.737 -5.392,9.762 -3.296,2.972 -40.565,41.227 -40.565,41.227 0,0 -1.751,2.824 -1.861,8.212 -0.07,3.296 0.163,80.471 0.163,80.471 0,0 -2.254,6.54 -7.421,11.047 -2.108,1.84 -133.461,136.3 -133.461,136.3 0,0 -6.158,6.262 -6.375,10.333 -0.108,1.977 0.109,74.645 0.109,74.645 0,0 1.213,5.35 5.171,8.759 1.868,1.61 1.21,1.018 12.203,13.357 l 3.462,-2.64 4.616,4.784 -2.802,3.132 23.085,23.91 2.58,-2.549 5.006,5.023 -2.805,2.309 22.935,22.87 3.75,-3.25 5.25,5 -3.25,3.5 24.579,23.822 3.02,-1.946 5.226,4.748 -3.299,2.641 22.591,23.086 3.627,-3.299 5.822,5.643 -3.792,3.296 21.882,22.559 3.299,-3.134 5.77,5.605 -3.297,3.135 20.614,19.952 2.964,-2.805 5.279,5.112 -11.875,11.051 -5.112,-4.619 3.02,-3.263 -182.049,-183.367 c 0,0 -6.045,-4.507 -5.276,-11.76 0.383,-3.609 -0.882,-75.089 -0.882,-75.089 0,0 -2.192,-6.797 13.859,-20.206 15.699,-13.12 13.889,-14.627 127.302,-129.116 0,0 7.584,-5.773 7.797,-9.531 0.144,-3.817 0.27,-38.514 0.27,-38.514 l -5.59,0 -0.25,-7.75 5.75,-0.25 0,-17 -5.5,0 -0.25,-7.5 5.75,-0.25 0.151,-8.217 c 0,0 -0.598,-10.093 5.558,-14.71 5.121,-3.845 37.928,-37.104 37.928,-37.104 l 0.658,-2.471 -3.469,-1.121 2.313,-5.805 4.95,1.649 0.329,-1.98 0,-19.789 -3.963,-0.128 0.006,-5.312 4.123,-0.331 -0.331,-20.611 -4.454,0 0.168,-6.102 4.78,0 -0.329,-21.436 -4.123,0.163 0.167,-6.101 4.121,-0.165 0.165,-21.766 -4.124,-0.166 0.165,-5.442 3.959,0.165 0.33,-21.436 z"
       inkscape:connector-curvature="0"
       style="fill:#00c5f8" /><path
       id="Line5"
       d="m 342.356,177.974 -2.803,2.639 -4.288,-3.134 9.071,-9.727 4.338,3.662 -2.309,2.639 39.906,40.564 3.247,-2.672 3.627,4.123 -2.918,2.838 6.876,7.387 c 0,0 3.793,5.77 3.677,11.41 -0.128,6.3 0.116,32.782 0.116,32.782 l 3.626,0.166 0.167,5.441 -3.958,0.164 -0.165,40.896 4.617,0.165 0,5.606 -4.784,0.166 0.332,38.75 4.946,0.164 -0.166,6.431 -4.452,0 0.33,179.082 c 0,0 0.989,4.289 3.793,7.256 3.081,3.26 79.365,81.99 79.365,81.99 0,0 4.288,3.628 9.893,3.299 5.606,-0.332 42.001,-0.036 42.001,-0.036 0,0 5.75,-0.773 10.859,4.171 0.336,0.321 3.375,-3 3.375,-3 l 5.25,5.375 -2.75,3.25 10.75,11.125 3.375,-2.5 4.875,5.25 -3,3 10.909,11.84 3.841,-3.59 5.125,5.5 -3.125,3.5 11,11.25 3.75,-3 4.5,4.25 -12,11.75 -4.75,-4 3.25,-3.5 -46.331,-48.304 c 0,0 -6.044,-6.196 -15.501,-6.267 -4.453,0.138 -34.743,0.197 -34.743,0.197 0,0 -10.44,0.955 -16.706,-5.146 -7.854,-7.648 -77.288,-81.259 -77.288,-81.259 0,0 -6.151,-4.984 -6.646,-10.918 -0.412,-4.942 -0.328,-70.083 -0.328,-70.083 l -3.959,0 0.166,-5.111 3.793,0 0.329,-235.147 c 0,0 -0.438,-6.196 -4.288,-10.884 -3.787,-4.616 -47.817,-49.8 -47.817,-49.8 z"
       inkscape:connector-curvature="0"
       style="fill:#91228b" /><path
       id="Line1"
       d="m 738.755,194.634 -3.132,-2.638 4.451,-4.287 10.884,9.729 -4.288,4.122 -3.298,-2.637 -36.444,35.783 4.455,4.287 -4.95,5.277 -4.779,-3.627 -22.099,21.933 2.969,3.297 -5.444,5.607 -3.625,-3.463 -19.128,17.973 c 0,0 -3.958,7.09 -3.626,10.884 0.041,0.462 4.946,0.163 4.946,0.163 l -0.164,6.596 -5.608,0.332 0.333,19.953 5.605,0 0.167,6.594 -5.441,0.33 0.162,17.479 5.936,0 0,6.761 -5.771,0 0.494,25.394 5.772,0 0,6.43 -5.277,0.167 -0.162,20.777 c 0,0 -0.333,3.297 -0.662,4.451 -0.064,0.226 5.11,3.298 5.11,3.298 l -3.461,5.772 -4.945,-1.814 -41.885,43.039 2.802,2.803 -4.287,4.784 -3.299,-2.969 -119.139,118.481 c 0,0 -10,8.5 -20.5,8.75 -7.585,0.181 -79.65,1.229 -79.65,1.229 0,0 -7.586,0.21 -10.225,2.521 -3.241,2.834 -38.75,35.125 -55.5,52.5 l 4.5,4 -7,7.5 -4.5,-4.5 c 0,0 -5.864,5.611 -7.091,7.94 -2.534,4.81 -1.534,12.06 -1.534,12.06 l 0,4.834 4.5,0 0,8.166 -4.75,0.084 0,8.916 5,0 -0.25,8.25 -4.417,0.084 0,14.333 4.417,-0.083 0.167,8.25 -4.417,0.083 -0.125,41.833 5.875,-0.125 0,9 -20.533,0.06 0,-8.936 6.122,-0.329 0.383,-97.918 c 0,0 -0.383,-9.102 3.081,-13.061 4.007,-4.575 29.222,-30.006 29.222,-30.006 l -3.167,-3.303 5.893,-5.883 3.625,3.5 36.863,-33.567 c 0,0 4.791,-3.959 15.841,-3.297 7.901,0.471 78.171,-1.636 78.171,-1.636 0,0 10.5,-1.75 15.75,-6.75 5.5,-5.75 160.871,-161.262 160.871,-161.262 0,0 6.216,-5.971 6.216,-11.908 0,-3.626 -0.166,-10.224 -1.27,-110.449 0,0 0.939,-9.928 5.888,-14.545 4.943,-4.616 89.372,-87.396 89.372,-87.396 z"
       inkscape:connector-curvature="0"
       style="fill:#d62d2a" /><path
       id="Line4"
       d="m 848.928,396.466 4.502,-4.582 10.671,9.859 -3.958,4.288 -3.137,-2.473 -152.366,149.729 c 0,0 -3.628,4.287 -21.27,4.122 -14.184,-0.132 -76.443,-0.589 -76.443,-0.589 l 0,4.563 -9.625,-0.063 0,-4.25 -179.095,0.704 0.003,-7.128 268.621,-0.825 c 0,0 10.059,0.496 14.347,-2.967 2.365,-1.908 61.344,-61.012 61.344,-61.012 l -2.969,-2.805 5.275,-5.439 3.628,3.132 31.813,-31.11 -3.3,-3.298 4.997,-5.078 3.627,3.298 30.084,-29.972 -3.25,-3.125 4.875,-4.5 3.875,3.125 10.884,-10.635"
       inkscape:connector-curvature="0"
       style="fill:#e46f10" /><path
       id="Line3"
       d="m 236.656,353.592 -2.802,2.641 -4.123,-4.29 11.048,-11.048 4.781,4.616 -3.297,3.135 38.588,37.761 c 0,0 3.627,3.135 10.222,3.794 6.598,0.659 39.248,0.165 39.248,0.165 0,0 6.759,0.658 11.872,6.429 4.509,5.09 102.289,104.582 102.289,104.582 0,0 3.957,4.287 14.511,3.955 10.554,-0.329 156.769,-0.362 156.769,-0.362 0,0 8.081,0.165 14.511,6.762 3.257,3.34 96.303,92.015 96.303,92.015 l 3.629,-3.465 4.449,4.619 -2.638,3.298 16.325,15.169 c 0,0 3.578,4.747 4.287,9.068 0.054,0.313 2.855,-0.127 2.855,-0.127 l 1.104,5.406 -3.133,0.823 0.495,104.384 4.45,-0.166 0.165,7.748 -15.831,0.167 -0.161,-7.915 4.615,-0.165 0,-33.146 -3.792,0.166 0,-6.43 3.135,-0.168 -0.168,-29.68 -3.628,0 0.167,-6.269 3.958,0 0,-27.864 c 0,0 -0.661,-8.904 -4.125,-12.369 -3.496,-3.498 -115.263,-107.183 -115.263,-107.183 0,0 -9.398,-7.751 -14.842,-7.751 -6.264,0 -152.532,0.164 -152.532,0.164 0,0 -14.179,0.821 -20.941,-5.77 -8.851,-8.634 -102.848,-104.513 -102.848,-104.513 0,0 -4.618,-4.619 -10.225,-4.619 -5.607,0 -21.818,0.131 -21.818,0.131 l 0,4.452 -6.101,-0.166 0,-4.122 -8.574,0.166 c 0,0 -10.72,-1.485 -13.688,-5.112 -2.968,-3.626 -39.246,-38.916 -39.246,-38.916 z"
       inkscape:connector-curvature="0"
       style="fill:#4aab3a" /></g><g
     id="Perehod_x5F_1"
     transform="translate(-129.14093,-103.99799)"><path
       d="m 573.376,502.671 0,-5.608 c 2.392,-0.823 4.122,-3.071 4.122,-5.743 0,-3.37 -2.731,-6.101 -6.103,-6.101 -3.372,0 -6.103,2.73 -6.103,6.101 0,2.672 1.735,4.92 4.12,5.743 l 0,5.708 c -2.306,0.866 -3.955,3.063 -3.955,5.658 0,3.347 2.73,6.06 6.101,6.06 3.375,0 6.102,-2.713 6.102,-6.06 10e-4,-2.716 -1.806,-4.987 -4.284,-5.758 z"
       id="path17"
       inkscape:connector-curvature="0"
       style="fill:#ffffff;stroke:#000000" /><path
       d="m 571.337,487.41 c 2.141,0 3.874,1.773 3.874,3.96 0,2.188 -1.733,3.962 -3.874,3.962 -2.137,0 -3.871,-1.774 -3.871,-3.962 0,-2.187 1.734,-3.96 3.871,-3.96 z"
       id="path19"
       inkscape:connector-curvature="0"
       style="fill:#d62d2a" /><circle
       cx="571.51898"
       cy="508.427"
       r="3.7119999"
       id="circle21"
       style="fill:#4aab3a" /></g><g
     id="Perechod_x5F_2"
     transform="translate(-129.14093,-103.99799)"><path
       d="m 527.862,547.855 0,-5.607 c 2.396,-0.826 4.122,-3.074 4.122,-5.746 0,-3.369 -2.729,-6.1 -6.1,-6.1 -3.372,0 -6.104,2.73 -6.104,6.1 0,2.672 1.734,4.92 4.122,5.746 l 0,5.705 c -2.306,0.869 -3.956,3.061 -3.956,5.658 0,3.347 2.729,6.06 6.102,6.06 3.371,0 6.102,-2.713 6.102,-6.06 -10e-4,-2.717 -1.81,-4.986 -4.288,-5.756 z"
       id="path24"
       inkscape:connector-curvature="0"
       style="fill:#ffffff;stroke:#000000" /><ellipse
       cx="525.828"
       cy="536.55298"
       rx="3.8699999"
       ry="3.96"
       id="ellipse26"
       style="fill:#d62d2a" /><circle
       cx="526.00598"
       cy="553.60901"
       r="3.711"
       id="circle28"
       style="fill:#e46f10" /></g><g
     id="Perechod_x5F_3"
     transform="translate(-129.14093,-103.99799)"><path
       d="m 453.47,601.939 0,-5.605 c 2.391,-0.822 4.122,-3.072 4.122,-5.74 0,-3.374 -2.732,-6.103 -6.102,-6.103 -3.372,0 -6.104,2.729 -6.104,6.103 0,2.668 1.732,4.919 4.124,5.74 l 0,5.707 c -2.309,0.865 -3.958,3.063 -3.958,5.661 0,3.34 2.731,6.057 6.101,6.057 3.37,0 6.101,-2.717 6.101,-6.057 0,-2.72 -1.81,-4.992 -4.284,-5.763 z"
       id="path31"
       inkscape:connector-curvature="0"
       style="fill:#ffffff;stroke:#000000" /><ellipse
       cx="451.431"
       cy="590.64099"
       rx="3.8710001"
       ry="3.961"
       id="ellipse33"
       style="fill:#d62d2a" /><circle
       cx="451.61099"
       cy="607.698"
       r="3.7119999"
       id="circle35"
       style="fill:#91228b" /></g><g
     id="Perechod_x5F_4"
     transform="translate(-129.14093,-103.99799)"><path
       d="m 688.737,564.961 0,-5.606 c 2.392,-0.824 4.123,-3.068 4.123,-5.742 0,-3.37 -2.732,-6.102 -6.102,-6.102 -3.373,0 -6.104,2.731 -6.104,6.102 0,2.674 1.731,4.92 4.122,5.742 l 0,5.709 c -2.306,0.863 -3.957,3.06 -3.957,5.652 0,3.349 2.729,6.063 6.103,6.063 3.369,0 6.101,-2.714 6.101,-6.063 0,-2.715 -1.809,-4.981 -4.286,-5.755 z"
       id="path38"
       inkscape:connector-curvature="0"
       style="fill:#ffffff;stroke:#000000" /><path
       d="m 686.705,549.702 c 2.136,0 3.87,1.771 3.87,3.958 0,2.189 -1.734,3.962 -3.87,3.962 -2.142,0 -3.874,-1.772 -3.874,-3.962 0,-2.188 1.732,-3.958 3.874,-3.958 z"
       id="path40"
       inkscape:connector-curvature="0"
       style="fill:#e46f10" /><path
       d="m 686.881,567.009 c 2.052,0 3.714,1.659 3.714,3.706 0,2.052 -1.662,3.713 -3.714,3.713 -2.048,0 -3.709,-1.661 -3.709,-3.713 0,-2.047 1.661,-3.706 3.709,-3.706 z"
       id="path42"
       inkscape:connector-curvature="0"
       style="fill:#4aab3a" /></g><g
     id="Perechod_x5F_5"
     transform="translate(-129.14093,-103.99799)"><path
       d="m 451.13,503.821 3.859,-4.066 c 2.307,1.047 5.104,0.611 6.947,-1.33 2.319,-2.444 2.22,-6.304 -0.228,-8.626 -2.444,-2.319 -6.303,-2.22 -8.623,0.229 -1.842,1.938 -2.134,4.758 -0.966,7.004 l -3.929,4.143 c -2.27,-0.964 -4.976,-0.506 -6.763,1.377 -2.304,2.426 -2.193,6.274 0.253,8.6 2.444,2.316 6.291,2.229 8.598,-0.195 1.868,-1.979 2.116,-4.869 0.852,-7.136 z"
       id="path45"
       inkscape:connector-curvature="0"
       style="fill:#ffffff;stroke:#000000" /><ellipse
       transform="matrix(-0.6884,0.7253,-0.7253,-0.6884,1130.7355,502.6996)"
       cx="457.39499"
       cy="494.21701"
       rx="3.9590001"
       ry="3.8710001"
       id="ellipse47"
       style="fill:#00c5f8" /><path
       d="m 445.822,503.01 c 2.048,0 3.709,1.658 3.709,3.709 0,2.051 -1.661,3.709 -3.709,3.709 -2.049,0 -3.71,-1.66 -3.71,-3.709 0,-2.051 1.661,-3.709 3.71,-3.709 z"
       id="path49"
       inkscape:connector-curvature="0"
       style="fill:#4aab3a" /></g><g
     id="Perehod_x5F_6"
     transform="translate(-129.14093,-103.99799)"><path
       d="m 380.308,593.771 5.606,-0.085 c 0.86,2.379 3.134,4.075 5.807,4.036 3.37,-0.046 6.06,-2.82 6.01,-6.19 -0.051,-3.371 -2.822,-6.059 -6.192,-6.011 -2.671,0.036 -4.893,1.803 -5.682,4.208 l -5.706,0.084 c -0.901,-2.293 -3.121,-3.915 -5.715,-3.875 -3.347,0.048 -6.02,2.819 -5.969,6.192 0.05,3.366 2.803,6.06 6.149,6.008 2.718,-0.036 4.957,-1.881 5.692,-4.367 z"
       id="path52"
       inkscape:connector-curvature="0"
       style="fill:#ffffff;stroke:#000000" /><path
       d="m 391.634,595.436 c -2.186,0.031 -3.985,-1.677 -4.017,-3.815 -0.034,-2.13 1.717,-3.895 3.903,-3.929 2.186,-0.034 3.987,1.676 4.019,3.811 0.033,2.142 -1.718,3.902 -3.905,3.933 z"
       id="path54"
       inkscape:connector-curvature="0"
       style="fill:#00c5f8" /><circle
       cx="374.52701"
       cy="591.99799"
       r="3.71"
       id="circle56"
       style="fill:#d62d2a" /></g><g
     id="Perehod_x5F_7"
     transform="translate(-129.14093,-103.99799)"><path
       d="m 418.933,548.153 c -2.753,0 -5.051,1.84 -5.807,4.343 l -3.43,0 0.011,-1.161 c 2.316,-0.843 3.995,-3.018 4.018,-5.613 0.037,-3.349 -2.665,-6.087 -6.038,-6.124 -3.37,-0.035 -6.129,2.646 -6.165,5.994 -0.028,2.717 1.756,5.001 4.224,5.798 l -0.059,5.604 c -2.401,0.803 -4.155,3.03 -4.184,5.703 -0.036,3.376 2.666,6.132 6.038,6.169 3.37,0.034 6.128,-2.666 6.164,-6.038 0.03,-2.671 -1.678,-4.937 -4.06,-5.788 l 0.016,-1.358 3.368,0 c 0.65,2.666 3.038,4.648 5.904,4.648 3.365,0 6.092,-2.722 6.092,-6.091 -0.003,-3.357 -2.728,-6.086 -6.092,-6.086 z"
       id="path59"
       inkscape:connector-curvature="0"
       style="fill:#ffffff;stroke:#000000" /><path
       d="m 403.792,562.673 c 0.024,-2.184 1.776,-3.941 3.915,-3.921 2.133,0.024 3.85,1.815 3.826,4.003 -0.023,2.186 -1.777,3.945 -3.908,3.923 -2.143,-0.021 -3.855,-1.816 -3.833,-4.005 z"
       id="path61"
       inkscape:connector-curvature="0"
       style="fill:#91228b" /><circle
       cx="407.664"
       cy="545.65698"
       r="3.7090001"
       id="circle63"
       style="fill:#00c5f8" /><circle
       cx="418.879"
       cy="554.125"
       r="3.71"
       id="circle65"
       style="fill:#e46f10" /></g>
</svg>